<svg width="1540" height="469" viewBox="0 0 1540 469" fill="none" xmlns="http://www.w3.org/2000/svg">
<path d="M276.6 189V137.55H224.7V189H212.25V84H224.7V127.05H276.6V84H289.05V189H276.6ZM311.566 189V114H324.016V189H311.566ZM309.616 95.1C309.616 90.9 313.516 87 317.716 87C321.916 87 325.816 90.9 325.816 95.1C325.816 99.6 321.916 103.2 317.716 103.2C313.516 103.2 309.616 99.6 309.616 95.1ZM348.376 174.45H359.176L352.276 203.1H342.826L348.376 174.45ZM443.842 189V84H456.292V189H443.842ZM482.302 82.8H492.802L486.352 115.35H477.352L482.302 82.8ZM513.094 189V114H525.394V122.25C530.644 115.8 537.844 111.75 545.644 111.75C558.094 111.75 567.394 116.85 572.494 126C578.044 116.85 587.644 111.75 598.444 111.75C618.544 111.75 629.344 125.1 629.344 145.2V189H616.594V145.2C616.594 132 610.294 122.4 598.444 122.4C587.494 122.4 577.444 131.4 577.144 145.5V189H564.544V145.5C564.244 131.1 557.944 122.4 545.944 122.4C535.594 122.4 526.294 132.75 525.394 147V189H513.094ZM309.6 382.05C298.95 393.9 283.5 401.25 265.35 401.25C232.35 401.25 207.75 376.8 207.75 346.35C207.75 316.2 232.35 291.75 265.35 291.75C283.5 291.75 299.25 299.1 309.6 310.8L300.6 318C291.15 309 280.35 302.55 265.2 302.55C240.3 302.55 220.5 321.15 220.5 346.35C220.5 370.5 240.3 390.3 265.2 390.3C281.1 390.3 292.8 383.4 300.75 375.15L309.6 382.05ZM326.033 399V279H338.483V332.55C344.483 325.95 352.883 321.75 362.633 321.75C383.183 321.75 395.783 335.7 396.083 355.35V399H383.483V355.5C383.183 342.9 375.683 332.55 361.733 332.55C348.683 332.55 338.483 344.55 338.483 357V399H326.033ZM436.385 363.45V352.8H475.085C472.985 341.1 463.235 332.55 451.385 332.55C436.535 332.55 424.685 343.35 424.685 361.35C424.685 379.05 437.585 390.15 453.635 390.15C463.985 390.15 472.985 386.25 478.985 380.1L487.535 386.85C480.035 395.7 467.735 401.25 453.635 401.25C429.485 401.25 411.785 384.45 411.785 361.35C411.785 338.4 428.435 321.75 451.385 321.75C473.285 321.75 488.885 340.05 488.135 363.45H436.385ZM505.33 399V324H517.63V333.3C523.78 326.25 532.48 321.75 542.08 321.75C562.78 321.75 575.08 335.7 575.38 355.35V399H562.78V355.5C562.48 343.05 554.83 332.4 541.03 332.4C528.13 332.4 517.63 344.7 517.63 357V399H505.33ZM663.232 403.8V387.75C656.032 396 645.232 401.25 632.932 401.25C608.632 401.25 591.082 383.4 591.082 361.35C591.082 339.6 608.632 321.75 632.932 321.75C645.532 321.75 656.032 326.85 663.232 334.8V324H675.082V403.8C675.082 425.4 662.932 436.95 642.382 435V424.2C657.082 426 663.232 417 663.232 403.8ZM603.682 361.35C603.682 378.3 615.982 391.2 632.932 391.2C648.982 391.2 662.182 378.3 662.182 361.35C662.182 344.7 648.982 331.8 632.932 331.8C616.432 331.8 603.682 344.7 603.682 361.35ZM745.588 399L724.588 370.65L703.888 399H690.388L718.138 361.8L690.088 324H704.638L725.788 352.65L746.938 324H760.138L732.088 361.2L760.138 399H745.588ZM776.654 399V324H789.104V399H776.654ZM774.704 305.1C774.704 300.9 778.604 297 782.804 297C787.004 297 790.904 300.9 790.904 305.1C790.904 309.6 787.004 313.2 782.804 313.2C778.604 313.2 774.704 309.6 774.704 305.1ZM810.896 399V324H823.196V333.3C829.346 326.25 838.046 321.75 847.646 321.75C868.346 321.75 880.646 335.7 880.946 355.35V399H868.346V355.5C868.046 343.05 860.396 332.4 846.596 332.4C833.696 332.4 823.196 344.7 823.196 357V399H810.896ZM960.352 399L1018.4 304.5H964.252V294H1037.9L979.852 388.5H1033.4V399H960.352ZM1051.42 399V279H1063.87V332.55C1069.87 325.95 1078.27 321.75 1088.02 321.75C1108.57 321.75 1121.17 335.7 1121.47 355.35V399H1108.87V355.5C1108.57 342.9 1101.07 332.55 1087.12 332.55C1074.07 332.55 1063.87 344.55 1063.87 357V399H1051.42ZM1193.14 348.75C1193.14 339 1186.24 332.4 1174.09 332.4C1163.74 332.4 1154.74 337.35 1149.34 341.4L1143.94 332.1C1152.49 325.5 1162.84 321.75 1174.09 321.75C1193.74 321.75 1205.59 331.8 1205.59 347.7V399H1193.14V387.6C1186.54 395.85 1176.94 401.1 1165.54 401.1C1148.44 401.1 1137.19 392.1 1137.19 378.45C1137.19 360.6 1156.69 349.95 1182.34 349.35V360.3C1163.74 360.75 1150.09 367.35 1150.09 378.6C1150.09 386.4 1156.84 390.6 1164.79 390.6C1179.94 390.6 1192.39 377.4 1193.14 362.7V348.75ZM1263.25 401.25C1239.7 401.25 1221.4 383.4 1221.4 361.35C1221.4 339.6 1238.95 321.75 1263.25 321.75C1287.55 321.75 1305.1 339.6 1305.1 361.35C1305.1 383.4 1287.55 401.25 1263.25 401.25ZM1234 361.35C1234 378.3 1247.2 391.05 1263.25 391.05C1280.2 391.05 1292.5 378.3 1292.5 361.35C1292.5 344.7 1279.75 331.8 1263.25 331.8C1247.2 331.8 1234 344.7 1234 361.35Z" fill="#E7DFD0"/>
</svg>
